<svg width="58" height="55" viewBox="0 0 58 55" fill="none" xmlns="http://www.w3.org/2000/svg">
<path d="M47.627 0.000244141H10.127C4.81445 0.000244141 0.751953 3.95002 0.751953 9.11511V45.5746C0.751953 50.7397 4.81445 54.6895 10.127 54.6895H47.627C52.9395 54.6895 57.002 50.7397 57.002 45.5746V9.11511C57.002 3.95002 52.9395 0.000244141 47.627 0.000244141ZM28.877 18.23C34.1895 18.23 38.252 22.1798 38.252 27.3448C38.252 32.5099 34.1895 36.4597 28.877 36.4597C23.5645 36.4597 19.502 32.5099 19.502 27.3448C19.502 22.1798 23.5645 18.23 28.877 18.23ZM40.752 12.1534C40.752 10.0266 42.627 8.50745 44.502 8.50745C46.377 8.50745 48.252 10.3304 48.252 12.1534C48.252 13.9764 46.6895 15.7993 44.502 15.7993C42.3145 15.7993 40.752 14.2802 40.752 12.1534ZM47.627 48.6129H10.127C8.25195 48.6129 7.00195 47.3976 7.00195 45.5746V27.3448H13.252C13.252 35.8521 20.127 42.5363 28.877 42.5363C37.627 42.5363 44.502 35.8521 44.502 27.3448H50.752V45.5746C50.752 47.3976 49.502 48.6129 47.627 48.6129Z" fill="black"/>
</svg>
