<svg width="58" height="57" viewBox="0 0 58 57" fill="none" xmlns="http://www.w3.org/2000/svg">
<path d="M19.0801 6.07681C21.4269 6.07681 23.5801 6.69055 25.5457 7.92714C26.5582 7.68407 27.7676 7.5595 29.1613 7.5595C34.9301 7.5595 39.8426 9.59516 43.9019 13.6604C47.9613 17.7287 49.9894 22.6599 49.9894 28.4569C49.9894 29.8728 49.8301 31.3524 49.5144 32.8959C50.3394 34.6854 50.7519 36.5023 50.7519 38.3466C50.7519 41.6796 49.5644 44.5326 47.1832 46.8994C44.8051 49.2723 41.9707 50.4633 38.6676 50.4633C36.6669 50.4553 34.7023 49.9445 32.9644 48.9806C31.3176 49.2267 30.0488 49.3513 29.1613 49.3513C23.3894 49.3513 18.4582 47.3156 14.3707 43.2474C10.2832 39.1791 8.23633 34.2479 8.23633 28.4569C8.23633 27.0988 8.3957 25.7164 8.71133 24.2945C7.56613 22.4217 6.97463 20.278 7.00195 18.0994C7.00195 14.7694 8.17695 11.9347 10.5207 9.59516C12.8645 7.2496 15.7207 6.07681 19.0801 6.07681ZM28.8769 38.0701C27.6082 38.0701 26.5988 37.8848 25.8301 37.5141C25.0082 37.0827 24.4394 36.6512 24.1207 36.2228C23.3613 34.8647 22.9457 34.1537 22.8832 34.096C22.6584 33.4011 22.2687 32.7673 21.7457 32.2457C21.1939 31.8445 20.5282 31.6185 19.8394 31.5985C19.4357 31.5848 19.0333 31.6515 18.6571 31.7947C18.2809 31.9379 17.9388 32.1544 17.6519 32.431C17.3802 32.6805 17.164 32.9815 17.0167 33.3154C16.8694 33.6494 16.7942 34.0091 16.7957 34.3725C16.7957 35.5453 17.2457 36.8062 18.1332 38.1643C18.9551 39.3948 20.0988 40.4157 21.5582 41.2117C23.5832 42.263 26.0894 42.7886 29.0707 42.7886C31.5394 42.7886 33.7269 42.4179 35.6332 41.6796C37.5363 40.8167 38.9301 39.7381 39.8176 38.4438C40.7676 37.0249 41.2426 35.4815 41.2426 33.8195C41.2426 32.4675 40.9926 31.2309 40.4863 30.1219C39.9769 29.1983 39.1863 28.3658 38.1051 27.6305C36.9671 26.9489 35.7557 26.3905 34.4926 25.9655C32.9852 25.5142 31.4624 25.113 29.9269 24.7624C29.3669 24.6791 28.8111 24.5706 28.2613 24.4373L26.9801 24.1152C26.4204 23.9518 25.8783 23.7361 25.3613 23.4711C24.8676 23.2366 24.4422 22.8856 24.1238 22.4502C23.9632 22.2926 23.8381 22.1043 23.7563 21.8971C23.6746 21.69 23.6379 21.4686 23.6488 21.247C23.6488 20.5087 24.0926 19.8646 24.9801 19.3056C25.8082 18.6888 27.0082 18.3789 28.5926 18.3789C30.1801 18.3789 31.3551 18.6584 32.1144 19.2083C32.9363 19.892 33.5394 20.6606 33.9176 21.5235C34.4269 22.3256 34.8394 22.8786 35.1551 23.1855C35.6759 23.5631 36.3119 23.7599 36.9613 23.7445C37.3716 23.744 37.7774 23.6612 38.1533 23.5012C38.5291 23.3413 38.867 23.1076 39.1457 22.8148C39.4258 22.5522 39.6467 22.236 39.7947 21.8861C39.9426 21.5363 40.0142 21.1604 40.0051 20.7822C40.0051 20.1684 39.7801 19.3633 39.3363 18.3789C38.7625 17.5669 38.0922 16.8235 37.3394 16.164C36.4519 15.4834 35.2801 14.897 33.8176 14.4048C32.2412 13.9639 30.6078 13.746 28.9676 13.7576C26.6863 13.7576 24.6551 14.0918 22.8801 14.7755C21.1113 15.3831 19.7457 16.3098 18.7957 17.5434C17.846 18.7672 17.3435 20.2641 17.3676 21.797C17.3676 23.3982 17.8144 24.7867 18.6988 25.9594C19.7801 27.19 20.9801 28.0498 22.3113 28.545C23.8363 29.2256 25.6738 29.7816 27.8301 30.21C28.2082 30.2738 28.6738 30.3802 29.2082 30.5321L30.6363 30.9058L31.6332 31.1337C32.5207 31.4466 33.2488 31.872 33.8176 32.431C34.3894 32.8594 34.6738 33.5066 34.6738 34.3725C34.6738 35.4237 34.1676 36.2836 33.1551 36.9642C32.0176 37.7025 30.5894 38.0701 28.8769 38.0701ZM19.0801 0.00021362C14.0519 0.00021362 9.53945 1.85358 6.03633 5.36281C2.5832 8.80824 0.751953 13.2168 0.751953 18.0994C0.751953 20.6272 1.23945 23.0184 2.2082 25.2333C2.06305 26.3031 1.98998 27.3809 1.98945 28.46C1.98945 35.8673 4.65508 42.2751 9.90195 47.501C15.1926 52.7633 21.6769 55.4309 29.1644 55.4309C29.9582 55.4309 30.8738 55.3702 31.9644 55.2486C34.1207 56.1085 36.3676 56.543 38.6707 56.543C43.6332 56.543 48.1238 54.6774 51.6613 51.1439C53.3756 49.4593 54.73 47.4615 55.6466 45.2656C56.5632 43.0698 57.0238 40.7193 57.0019 38.3496C57.0019 36.2927 56.6551 34.251 55.9644 32.2609C56.1464 31.0016 56.2393 29.7316 56.2426 28.46C56.2426 21.0556 53.5988 14.6539 48.3894 9.4311C43.1238 4.15965 36.6551 1.48594 29.1644 1.48594C28.3286 1.48476 27.4933 1.52329 26.6613 1.6014C24.2854 0.534208 21.6973 -0.0124055 19.0801 0.00021362Z" fill="black"/>
</svg>
