<svg width="58" height="47" viewBox="0 0 58 47" fill="none" xmlns="http://www.w3.org/2000/svg">
<path d="M57.7522 5.93167C55.5898 6.86304 53.2961 7.47409 50.9475 7.74445C53.4213 6.30531 55.2726 4.04072 56.1562 1.37274C53.8309 2.71486 51.2864 3.65994 48.633 4.16702C47.5244 3.01738 46.1847 2.10136 44.6971 1.4757C43.2095 0.850044 41.6056 0.52809 39.9847 0.529792C33.4417 0.529792 28.1362 5.68666 28.1362 12.0496C28.1362 12.9516 28.2412 13.8318 28.4437 14.6754C18.5962 14.1949 9.86624 9.60827 4.02225 2.6379C2.96855 4.39603 2.41487 6.39505 2.418 8.42989C2.41644 10.3265 2.89678 12.1942 3.81633 13.8669C4.73588 15.5396 6.06617 16.9656 7.68899 18.0181C5.80777 17.96 3.96801 17.466 2.32275 16.5772C2.32125 16.6253 2.32125 16.6727 2.32125 16.7223C2.32125 22.3021 6.405 26.958 11.8245 28.0175C10.0794 28.4768 8.24977 28.5442 6.47399 28.2144C7.98149 32.7901 12.357 36.1218 17.5417 36.2151C13.3447 39.4175 8.16188 41.1544 2.82675 41.1467C1.8705 41.1467 0.927749 41.0927 0 40.9855C5.4175 44.3698 11.7226 46.1662 18.162 46.1599C39.9555 46.1599 51.873 28.6074 51.873 13.3862C51.873 12.8875 51.861 12.3894 51.8385 11.8943C54.1593 10.2652 56.1621 8.24591 57.7522 5.93167V5.93167Z" fill="black"/>
</svg>
